Coordinates
version=1
nRows=16
nColumns=40
inDegrees=yes

Units are S.I. units (second, meters, Newtons, ...)
Angles are in degrees.

endheader
time	pelvis_tilt	pelvis_list	pelvis_rotation	pelvis_tx	pelvis_ty	pelvis_tz	hip_flexion_r	hip_adduction_r	hip_rotation_r	knee_angle_r	knee_angle_r_beta	ankle_angle_r	subtalar_angle_r	mtp_angle_r	hip_flexion_l	hip_adduction_l	hip_rotation_l	knee_angle_l	knee_angle_l_beta	ankle_angle_l	subtalar_angle_l	mtp_angle_l	lumbar_extension	lumbar_bending	lumbar_rotation	arm_flex_r	arm_add_r	arm_rot_r	elbow_flex_r	pro_sup_r	wrist_flex_r	wrist_dev_r	arm_flex_l	arm_add_l	arm_rot_l	elbow_flex_l	pro_sup_l	wrist_flex_l	wrist_dev_l
     36.00714286	     -6.02271903	     -5.06741081	     -8.13377677	      0.90339488	      0.92895036	      0.41901612	     27.35814505	     -0.70370265	     -5.15478414	     26.77470884	     26.77470884	      6.77267866	     -3.87416272	     -1.77944337	      7.74122828	     -4.61033388	     -6.14186787	     18.94546228	     18.94546228	     18.69389696	    -10.77129975	      2.97811657	     -9.75508625	      6.73029956	      2.25626693	     -8.92120534	    -12.28410003	    -15.03391236	     24.34363624	     47.38949249	      0.00000000	      0.00000000	     17.56982045	    -16.28539884	    -14.34273066	     70.01482060	     47.99502562	      0.00000000	      0.00000000
     36.02428571	     -6.19711452	     -4.88590801	     -8.50035050	      0.90341254	      0.92840725	      0.42164538	     26.75174811	     -0.53979546	     -5.91474194	     22.83976293	     22.83976293	      6.70036337	     -0.26499785	     -0.51409356	      6.98201143	     -4.57182815	     -6.83421501	     17.96580518	     17.96580518	     18.54060681	    -10.16299292	      1.98030363	     -9.62231677	      6.57246663	      2.20732484	    -10.05059115	    -12.01910695	    -15.19492560	     25.26635425	     47.32309724	      0.00000000	      0.00000000	     17.86321417	    -16.53329888	    -15.10067509	     72.56400143	     48.08983839	      0.00000000	      0.00000000
     36.04142857	     -6.31555206	     -4.77115633	     -8.80579225	      0.90375149	      0.92759139	      0.42442767	     26.08918378	     -0.23005722	     -6.40610931	     19.44019568	     19.44019568	      6.37816763	      2.33610603	      0.68483060	      6.27039589	     -4.57299392	     -7.27866750	     17.24731062	     17.24731062	     18.61235586	     -9.81587705	      1.48709890	     -9.46136683	      6.51673013	      2.29828193	    -10.84633136	    -11.80181453	    -15.22425941	     25.50678624	     47.29389206	      0.00000000	      0.00000000	     18.53196007	    -16.77867048	    -15.48170558	     74.06537591	     48.14555094	      0.00000000	      0.00000000
     36.05857143	     -6.37087568	     -4.57264268	     -9.08534139	      0.90444170	      0.92651298	      0.42726636	     25.60157088	     -0.12165543	     -7.16221819	     17.02672773	     17.02672773	      6.12601584	      4.94865822	      1.77789040	      5.50344529	     -4.48513974	     -7.79322356	     16.56480403	     16.56480403	     18.70121179	     -9.34704346	      0.83377594	     -9.36225688	      6.37189734	      2.45419353	    -11.57491199	    -11.58060957	    -15.27442704	     25.88206814	     47.25985009	      0.00000000	      0.00000000	     19.10510885	    -16.91673609	    -15.88282408	     75.80361466	     48.20615628	      0.00000000	      0.00000000
     36.07571429	     -6.43425091	     -4.34464195	     -9.33090659	      0.90543135	      0.92519648	      0.43016519	     25.37498212	     -0.10885426	     -7.95233573	     15.64000949	     15.64000949	      6.17141495	      7.07040202	      3.35667264	      4.80560144	     -4.36550624	     -8.25787986	     15.98132883	     15.98132883	     18.41838670	     -9.11783657	     -0.82970036	     -9.20178620	      6.23333429	      2.23893367	    -12.16026514	    -11.36117266	    -15.28325295	     27.21756807	     47.13906434	      0.00000000	      0.00000000	     19.05632226	    -17.08395850	    -16.81148158	     78.24773807	     48.30444133	      0.00000000	      0.00000000
     36.09285714	     -6.52529831	     -4.17605763	     -9.54040931	      0.90676646	      0.92391287	      0.43326213	     25.17434292	      0.01751004	     -8.33159234	     14.72533581	     14.72533581	      5.73586506	      8.00256895	      3.44789832	      4.14084884	     -4.29832238	     -8.56474701	     15.48999473	     15.48999473	     18.68562274	     -8.86220039	     -0.97921278	     -8.88622514	      6.19763554	      2.48970323	    -12.51994329	    -11.24203009	    -15.23203487	     27.05565761	     47.13090653	      0.00000000	      0.00000000	     19.73485482	    -17.07927846	    -16.96356425	     79.06507756	     48.33262288	      0.00000000	      0.00000000
     36.11000000	     -6.44268805	     -4.07529684	     -9.72783119	      0.90853253	      0.92292627	      0.43650014	     24.87149705	      0.11039224	     -8.82100457	     14.45782462	     14.45782462	      5.25737280	      8.78062951	      2.86723222	      3.26794452	     -4.29613778	     -8.94125459	     15.03800372	     15.03800372	     18.95902572	     -8.44294730	     -1.17133532	     -8.78760183	      6.22074113	      2.79537839	    -12.70181527	    -11.17087535	    -15.22498781	     26.97721419	     47.12159278	      0.00000000	      0.00000000	     20.23507437	    -16.93587621	    -17.20365746	     80.14507333	     48.36966751	      0.00000000	      0.00000000
     36.12714286	     -6.37391286	     -3.95610500	     -9.90256098	      0.91059219	      0.92195368	      0.43993130	     24.67940253	      0.18326831	     -9.01297807	     14.69172287	     14.69172287	      4.52638833	      8.82736957	      1.00725850	      2.45721582	     -4.30308409	     -9.37374203	     14.70357670	     14.70357670	     19.27457647	     -7.92952340	     -1.31171596	     -8.61988853	      6.21903809	      2.91582374	    -12.63942014	    -11.14473655	    -15.30142608	     26.92473801	     47.11273587	      0.00000000	      0.00000000	     20.38578137	    -16.80172640	    -17.68984723	     81.36426137	     48.42174601	      0.00000000	      0.00000000
     36.14428571	     -6.29991641	     -3.98297212	     -9.93955678	      0.91304175	      0.92115028	      0.44355224	     24.23153181	      0.46089419	     -8.84692974	     14.71983848	     14.71983848	      2.86067486	      7.80628391	     -3.61440342	      1.75992040	     -4.50982076	     -9.66038428	     14.68252449	     14.68252449	     19.77917698	     -7.49299590	     -1.00250266	     -8.37971686	      6.40377892	      2.51206042	    -12.02766600	    -11.20793266	    -15.54830251	     26.44489419	     47.10771431	      0.00000000	      0.00000000	     20.11015152	    -16.83763656	    -18.57631906	     82.44285134	     48.48651400	      0.00000000	      0.00000000
     36.16142857	     -6.26116672	     -4.07904356	     -9.97913034	      0.91564058	      0.92069271	      0.44726925	     23.92974043	      0.71211951	     -8.93337430	     15.29910067	     15.29910067	      2.87217905	      7.53603853	     -3.80705655	      1.07213271	     -4.76203353	     -9.70264992	     14.60772312	     14.60772312	     19.99529153	     -7.51309306	     -0.99028967	     -8.06854922	      6.69642711	      2.57778167	    -11.74665658	    -11.31864031	    -15.55779825	     26.50417128	     47.10730215	      0.00000000	      0.00000000	     20.25651962	    -16.71023823	    -18.55084909	     82.57423264	     48.48760816	      0.00000000	      0.00000000
     36.17857143	     -5.99212282	     -4.04348366	    -10.00523800	      0.91852553	      0.92065996	      0.45120191	     23.63375097	      0.87569026	     -8.22807004	     16.40553123	     16.40553123	      2.87763093	      5.93509718	     -4.87334324	      0.06930616	     -4.87748464	    -10.04749962	     14.41096225	     14.41096225	     20.27546522	     -6.91916869	     -0.57442673	     -8.02772426	      6.74572200	      2.73416797	    -11.33981849	    -11.45708392	    -15.70338458	     26.25704461	     47.12054577	      0.00000000	      0.00000000	     20.19580670	    -16.40494904	    -18.86981254	     83.14582177	     48.51476635	      0.00000000	      0.00000000
     36.19571429	     -5.74399203	     -4.10180291	     -9.94866107	      0.92154376	      0.92090564	      0.45520019	     23.17654833	      1.08821373	     -7.87709238	     17.28692224	     17.28692224	      3.07260400	      4.97069115	     -5.38428626	     -0.78514233	     -5.12305105	    -10.22125747	     14.46006711	     14.46006711	     20.44466755	     -6.62388882	     -0.31137184	     -7.92163104	      6.88331084	      2.70012433	    -10.81356102	    -11.64513408	    -15.81105096	     26.25322355	     47.12841463	      0.00000000	      0.00000000	     20.04499395	    -16.24882198	    -18.99872390	     83.29653080	     48.52307296	      0.00000000	      0.00000000
     36.21285714	     -5.52832156	     -4.15599226	     -9.83966826	      0.92460688	      0.92140899	      0.45935537	     22.66689222	      1.37643094	     -7.24350108	     17.99924691	     17.99924691	      3.30216858	      3.54339874	     -5.74788164	     -1.51172333	     -5.43910190	    -10.49140547	     14.67763661	     14.67763661	     20.66104312	     -6.08171991	      0.13543108	     -7.76747111	      7.03102124	      2.51910414	    -10.07290496	    -11.83273230	    -16.00215324	     26.21105250	     47.14298228	      0.00000000	      0.00000000	     19.63520424	    -16.03632678	    -19.19852962	     83.45463435	     48.53351095	      0.00000000	      0.00000000
     36.23000000	     -5.25318360	     -4.27771794	     -9.64314634	      0.92772271	      0.92221046	      0.46345288	     21.97786299	      1.63092234	     -7.08776682	     18.54415833	     18.54415833	      3.73453228	      2.96808948	     -5.92233240	     -2.19412219	     -5.82879194	    -10.52841337	     15.06819348	     15.06819348	     20.65767451	     -5.91984033	      0.31859061	     -7.67735725	      7.24029423	      2.42562082	     -9.44380224	    -12.10856736	    -16.09774143	     26.33322006	     47.14815724	      0.00000000	      0.00000000	     19.27402908	    -15.75341591	    -19.14025683	     83.35868182	     48.52424601	      0.00000000	      0.00000000
     36.24714286	     -5.07468100	     -4.31480203	     -9.42568319	      0.93067301	      0.92312578	      0.46780064	     21.33301042	      1.93951235	     -6.52590741	     18.88869676	     18.88869676	      4.14665064	      1.70182283	     -5.63693946	     -2.58370053	     -6.27444162	    -10.83882323	     15.78275883	     15.78275883	     20.80557152	     -5.11612455	      0.69421046	     -7.41973494	      7.24213052	      2.00510233	     -8.48960107	    -12.28751667	    -16.34546987	     26.41307396	     47.16144352	      0.00000000	      0.00000000	     18.60790424	    -15.76638571	    -19.20962584	     83.12261284	     48.51722881	      0.00000000	      0.00000000
     36.26428571	     -4.78080546	     -4.33431561	     -9.16737444	      0.93367429	      0.92429133	      0.47192353	     20.52243369	      2.07247109	     -6.52368552	     19.15364808	     19.15364808	      4.70714554	      1.51145857	     -5.71357557	     -3.06683797	     -6.61456234	    -10.77716568	     16.48010777	     16.48010777	     20.59222229	     -5.06561731	      0.75467964	     -7.34136802	      7.27089800	      1.94895074	     -7.78871472	    -12.54394494	    -16.40472939	     26.62692014	     47.16119326	      0.00000000	      0.00000000	     18.19329817	    -15.35150583	    -18.99421048	     82.88482844	     48.49484774	      0.00000000	      0.00000000
